:SAMPLES-PER-SECOND 30
:FULLY-SPECIFIED
:DEGREES
947
root  -19.2998 28.9199 42.0728 -129.959 2.11738 89.3975
Spine  -11.5287 -13.7538 -0.184233
Spine1  -10.9826 27.1596 -6.61933
Neck  3.97569e-016 0 -2.38542e-015
Head  42.1071 15.7736 -3.19849
R_Clavicle  1.19063 -4.14769 6.91003
R_UpperArm  68.6843 9.58734 60.5237
R_Forearm  40.5307 8.5612 -7.21377
R_Hand  -0.790927 3.70377 -15.7849
L_Clavicle  -0.443746 11.061 3.04121
L_UpperArm  -37.7591 1.92807 25.1717
L_Forearm  -10.9329 9.73473 11.4131
L_Hand  -0.231416 6.70259 -1.95654
L_Thigh  11.0541 23.3621 -7.42069
L_Calf  3.18649 -1.63907 11.6842
L_Foot  -3.60789 -16.4067 14.2722
L_Toe0  0.385069 0.0314725 -6.06856
R_Thigh  -16.498 -10.0134 5.03615
R_Calf  -10.1865 2.40606 7.54012
R_Foot  5.49205 17.0538 8.69763
R_Toe0  1.81281 -0.410663 -11.986
948
root  -18.5904 30.5217 41.8569 -128.18 0.952308 88.284
Spine  -11.2391 -13.5963 -3.15157
Spine1  -11.3088 23.1541 -8.16643
Neck  3.97569e-016 0 -2.38542e-015
Head  40.4346 15.031 -2.40888
R_Clavicle  1.07556 -6.17309 6.69025
R_UpperArm  61.8571 6.95834 54.6682
R_Forearm  39.0752 10.8173 -9.16322
R_Hand  -0.884277 4.41006 -17.0661
L_Clavicle  -0.438233 13.8373 2.54413
L_UpperArm  -35.0641 7.63378 24.2004
L_Forearm  -17.1088 12.4384 14.7471
L_Hand  -0.243557 7.15515 -1.98761
L_Thigh  7.95157 21.1965 -7.89019
L_Calf  -2.55507 -2.18881 15.8517
L_Foot  -2.04346 -7.46274 -0.807091
L_Toe0  -1.26323 0.0777081 -5.12455
R_Thigh  -14.7868 -11.0958 1.47967
R_Calf  -8.72341 4.14907 13.0114
R_Foot  4.7342 16.1999 -0.977234
R_Toe0  1.41442 -0.448277 -5.223
949
root  -18.0201 32.0867 41.5506 -126.054 -0.378367 87.8889
Spine  -10.0183 -10.807 -7.06508
Spine1  -10.2542 16.6107 -7.33758
Neck  3.97569e-016 0 -2.38542e-015
Head  36.969 12.8841 -1.70425
R_Clavicle  0.894263 -8.74277 6.02778
R_UpperArm  56.1355 2.54083 49.8817
R_Forearm  39.4024 12.7728 -10.8854
R_Hand  -1.00554 5.39514 -18.5052
L_Clavicle  -0.447304 15.6876 1.44756
L_UpperArm  -31.4606 11.0807 22.8921
L_Forearm  -24.8295 15.8523 19.1391
L_Hand  -0.340416 7.4338 -2.78505
L_Thigh  4.1197 18.41 -8.34229
L_Calf  -5.21617 -2.60041 19.0247
L_Foot  -1.87158 1.681 -11.1653
L_Toe0  -3.63284 0.194656 -3.75683
R_Thigh  -13.4477 -11.5355 -2.07301
R_Calf  -4.64983 5.59501 17.6755
R_Foot  4.1067 15.0083 -13.1414
R_Toe0  2.8408 -0.930763 -0.232008
950
root  -17.4973 33.3345 41.3631 -123.401 -0.496771 87.764
Spine  -8.38439 -7.415 -11.6777
Spine1  -8.73768 11.061 -5.94357
Neck  3.97569e-016 0 -2.38542e-015
Head  33.438 8.19638 -0.473214
R_Clavicle  0.750593 -10.8275 5.31666
R_UpperArm  50.1441 -1.16824 45.9667
R_Forearm  38.7869 14.1345 -12.1061
R_Hand  -1.12346 6.06867 -19.6757
L_Clavicle  -0.464278 16.4747 0.499143
L_UpperArm  -25.1155 13.2731 20.6219
L_Forearm  -35.2358 19.047 23.5002
L_Hand  -0.483386 6.98952 -4.18455
L_Thigh  -0.0539359 15.7304 -7.47845
L_Calf  -0.9938 -2.80966 20.6911
L_Foot  -1.90172 4.83962 -13.0063
L_Toe0  -1.03518 0.0541454 -5.25606
R_Thigh  -10.7956 -10.7725 -4.00726
R_Calf  1.11796 6.55882 20.8657
R_Foot  3.3797 9.33265 -24.3212
R_Toe0  8.03254 -2.70061 1.28509
951
root  -17.0219 34.1474 41.3669 -120.224 0.274844 87.6378
Spine  -6.9516 -5.54221 -15.2494
Spine1  -7.48815 8.55437 -5.71663
Neck  3.97569e-016 0 -2.38542e-015
Head  30.051 5.25584 0.882602
R_Clavicle  0.689649 -11.4574 4.87635
R_UpperArm  42.6723 -3.61341 41.3438
R_Forearm  36.5761 14.9161 -12.8159
R_Hand  -1.31682 6.91651 -21.3999
L_Clavicle  -0.458753 16.2046 -0.079943
L_UpperArm  -17.649 15.7555 17.9992
L_Forearm  -46.9497 20.7872 26.0087
L_Hand  -0.563068 6.08376 -5.34269
L_Thigh  -3.36373 12.6539 -4.98481
L_Calf  5.38912 -2.71566 20.0171
L_Foot  -1.58954 3.13222 -10.4659
L_Toe0  0.65453 0.0318478 -6.22154
R_Thigh  -7.14279 -9.02521 -4.37088
R_Calf  4.11092 6.87542 21.9177
R_Foot  3.05353 0.181127 -28.4992
R_Toe0  13.2016 -3.65229 -3.34518
952
root  -16.6185 34.5688 41.3463 -116.606 -0.249933 88.4645
Spine  -5.89297 -4.42677 -15.902
Spine1  -6.42558 7.68642 -5.81138
Neck  3.97569e-016 0 -2.38542e-015
Head  27.079 3.51876 1.06268
R_Clavicle  0.6376 -11.3476 4.32642
R_UpperArm  34.071 -4.82096 35.6528
R_Forearm  34.2564 15.6493 -13.4885
R_Hand  -1.87889 8.40699 -25.6157
L_Clavicle  -0.429098 15.3358 -0.677292
L_UpperArm  -12.5503 17.7865 15.9697
L_Forearm  -56.0939 20.4041 25.4477
L_Hand  -0.528862 6.19106 -4.93774
L_Thigh  -4.64 9.09093 -3.91657
L_Calf  8.0861 -2.49786 18.3251
L_Foot  -1.36634 0.299593 -7.14363
L_Toe0  0.505156 0.0344463 -6.1361
R_Thigh  -4.65851 -6.63108 -6.08085
R_Calf  1.07018 6.68112 21.2749
R_Foot  2.28251 -4.40891 -23.6624
R_Toe0  10.9368 -1.77795 -10.7462
